<mxfile host="app.diagrams.net" modified="2023-11-13T00:26:37.936Z" agent="Mozilla/5.0 (Windows NT 10.0; Win64; x64; rv:109.0) Gecko/20100101 Firefox/119.0" etag="bbeLK13KG8xPv2cahs0b" version="22.1.0" type="github">
  <diagram name="Página-1" id="cCKO2vU_R3Nvwjt6O_Bb">
    <mxGraphModel dx="812" dy="482" grid="1" gridSize="10" guides="1" tooltips="1" connect="1" arrows="1" fold="1" page="1" pageScale="1" pageWidth="827" pageHeight="1169" math="0" shadow="0">
      <root>
        <mxCell id="0" />
        <mxCell id="1" parent="0" />
        <mxCell id="N90UWdWT46t-Qlg6uNlZ-4" style="edgeStyle=orthogonalEdgeStyle;rounded=0;orthogonalLoop=1;jettySize=auto;html=1;exitX=1;exitY=0.5;exitDx=0;exitDy=0;entryX=0;entryY=0.5;entryDx=0;entryDy=0;strokeWidth=2;endArrow=none;endFill=0;startArrow=ERoneToMany;startFill=0;" edge="1" parent="1" source="zTk_jniPwo0BafnFYXpP-2" target="N90UWdWT46t-Qlg6uNlZ-3">
          <mxGeometry relative="1" as="geometry">
            <Array as="points">
              <mxPoint x="320" y="380" />
              <mxPoint x="320" y="380" />
            </Array>
          </mxGeometry>
        </mxCell>
        <mxCell id="zTk_jniPwo0BafnFYXpP-2" value="Profesional" style="whiteSpace=wrap;html=1;align=center;strokeWidth=2;fontSize=16;" parent="1" vertex="1">
          <mxGeometry x="150" y="360" width="100" height="40" as="geometry" />
        </mxCell>
        <mxCell id="N90UWdWT46t-Qlg6uNlZ-5" style="edgeStyle=orthogonalEdgeStyle;rounded=0;orthogonalLoop=1;jettySize=auto;html=1;exitX=0;exitY=0.5;exitDx=0;exitDy=0;entryX=1;entryY=0.5;entryDx=0;entryDy=0;strokeWidth=2;endArrow=none;endFill=0;startArrow=ERzeroToMany;startFill=0;" edge="1" parent="1" source="zTk_jniPwo0BafnFYXpP-5" target="N90UWdWT46t-Qlg6uNlZ-3">
          <mxGeometry relative="1" as="geometry" />
        </mxCell>
        <mxCell id="zTk_jniPwo0BafnFYXpP-5" value="Usuario" style="whiteSpace=wrap;html=1;align=center;strokeWidth=2;fontSize=16;" parent="1" vertex="1">
          <mxGeometry x="580" y="360" width="100" height="40" as="geometry" />
        </mxCell>
        <mxCell id="N90UWdWT46t-Qlg6uNlZ-3" value="Contrata" style="shape=rhombus;perimeter=rhombusPerimeter;whiteSpace=wrap;html=1;align=center;strokeWidth=2;fontSize=16;" vertex="1" parent="1">
          <mxGeometry x="354" y="350" width="120" height="60" as="geometry" />
        </mxCell>
        <mxCell id="N90UWdWT46t-Qlg6uNlZ-8" value="Información Personal" style="ellipse;whiteSpace=wrap;html=1;align=center;fontSize=16;strokeWidth=2;" vertex="1" parent="1">
          <mxGeometry x="50" y="30" width="116" height="50" as="geometry" />
        </mxCell>
        <mxCell id="N90UWdWT46t-Qlg6uNlZ-9" value="Dirección de Residencia" style="ellipse;whiteSpace=wrap;html=1;align=center;fontSize=16;strokeWidth=2;" vertex="1" parent="1">
          <mxGeometry x="214" y="70" width="116" height="50" as="geometry" />
        </mxCell>
      </root>
    </mxGraphModel>
  </diagram>
</mxfile>
